<svg width="60" height="28" viewBox="0 0 60 28" fill="none" xmlns="http://www.w3.org/2000/svg">
<g opacity="0.219099">
<path fill-rule="evenodd" clip-rule="evenodd" d="M2 4C3.10457 4 4 3.10457 4 2C4 0.89543 3.10457 0 2 0C0.89543 0 0 0.89543 0 2C0 3.10457 0.89543 4 2 4Z" fill="#F7981E"/>
<path fill-rule="evenodd" clip-rule="evenodd" d="M26 4C27.1046 4 28 3.10457 28 2C28 0.89543 27.1046 0 26 0C24.8954 0 24 0.89543 24 2C24 3.10457 24.8954 4 26 4Z" fill="#F7981E"/>
<path fill-rule="evenodd" clip-rule="evenodd" d="M10 4C11.1046 4 12 3.10457 12 2C12 0.89543 11.1046 0 10 0C8.89543 0 8 0.89543 8 2C8 3.10457 8.89543 4 10 4Z" fill="#F7981E"/>
<path fill-rule="evenodd" clip-rule="evenodd" d="M18 4C19.1046 4 20 3.10457 20 2C20 0.89543 19.1046 0 18 0C16.8954 0 16 0.89543 16 2C16 3.10457 16.8954 4 18 4Z" fill="#F7981E"/>
<path fill-rule="evenodd" clip-rule="evenodd" d="M34 4C35.1046 4 36 3.10457 36 2C36 0.89543 35.1046 0 34 0C32.8954 0 32 0.89543 32 2C32 3.10457 32.8954 4 34 4Z" fill="#F7981E"/>
<path fill-rule="evenodd" clip-rule="evenodd" d="M58 4C59.1046 4 60 3.10457 60 2C60 0.89543 59.1046 0 58 0C56.8954 0 56 0.89543 56 2C56 3.10457 56.8954 4 58 4Z" fill="#F7981E"/>
<path fill-rule="evenodd" clip-rule="evenodd" d="M42 4C43.1046 4 44 3.10457 44 2C44 0.89543 43.1046 0 42 0C40.8954 0 40 0.89543 40 2C40 3.10457 40.8954 4 42 4Z" fill="#F7981E"/>
<path fill-rule="evenodd" clip-rule="evenodd" d="M50 4C51.1046 4 52 3.10457 52 2C52 0.89543 51.1046 0 50 0C48.8954 0 48 0.89543 48 2C48 3.10457 48.8954 4 50 4Z" fill="#F7981E"/>
<path fill-rule="evenodd" clip-rule="evenodd" d="M2 12C3.10457 12 4 11.1046 4 10C4 8.89543 3.10457 8 2 8C0.89543 8 0 8.89543 0 10C0 11.1046 0.89543 12 2 12Z" fill="#F7981E"/>
<path fill-rule="evenodd" clip-rule="evenodd" d="M26 12C27.1046 12 28 11.1046 28 10C28 8.89543 27.1046 8 26 8C24.8954 8 24 8.89543 24 10C24 11.1046 24.8954 12 26 12Z" fill="#F7981E"/>
<path fill-rule="evenodd" clip-rule="evenodd" d="M10 12C11.1046 12 12 11.1046 12 10C12 8.89543 11.1046 8 10 8C8.89543 8 8 8.89543 8 10C8 11.1046 8.89543 12 10 12Z" fill="#F7981E"/>
<path fill-rule="evenodd" clip-rule="evenodd" d="M18 12C19.1046 12 20 11.1046 20 10C20 8.89543 19.1046 8 18 8C16.8954 8 16 8.89543 16 10C16 11.1046 16.8954 12 18 12Z" fill="#F7981E"/>
<path fill-rule="evenodd" clip-rule="evenodd" d="M34 12C35.1046 12 36 11.1046 36 10C36 8.89543 35.1046 8 34 8C32.8954 8 32 8.89543 32 10C32 11.1046 32.8954 12 34 12Z" fill="#F7981E"/>
<path fill-rule="evenodd" clip-rule="evenodd" d="M58 12C59.1046 12 60 11.1046 60 10C60 8.89543 59.1046 8 58 8C56.8954 8 56 8.89543 56 10C56 11.1046 56.8954 12 58 12Z" fill="#F7981E"/>
<path fill-rule="evenodd" clip-rule="evenodd" d="M42 12C43.1046 12 44 11.1046 44 10C44 8.89543 43.1046 8 42 8C40.8954 8 40 8.89543 40 10C40 11.1046 40.8954 12 42 12Z" fill="#F7981E"/>
<path fill-rule="evenodd" clip-rule="evenodd" d="M50 12C51.1046 12 52 11.1046 52 10C52 8.89543 51.1046 8 50 8C48.8954 8 48 8.89543 48 10C48 11.1046 48.8954 12 50 12Z" fill="#F7981E"/>
<path fill-rule="evenodd" clip-rule="evenodd" d="M2 20C3.10457 20 4 19.1046 4 18C4 16.8954 3.10457 16 2 16C0.89543 16 0 16.8954 0 18C0 19.1046 0.89543 20 2 20Z" fill="#F7981E"/>
<path fill-rule="evenodd" clip-rule="evenodd" d="M26 20C27.1046 20 28 19.1046 28 18C28 16.8954 27.1046 16 26 16C24.8954 16 24 16.8954 24 18C24 19.1046 24.8954 20 26 20Z" fill="#F7981E"/>
<path fill-rule="evenodd" clip-rule="evenodd" d="M10 20C11.1046 20 12 19.1046 12 18C12 16.8954 11.1046 16 10 16C8.89543 16 8 16.8954 8 18C8 19.1046 8.89543 20 10 20Z" fill="#F7981E"/>
<path fill-rule="evenodd" clip-rule="evenodd" d="M18 20C19.1046 20 20 19.1046 20 18C20 16.8954 19.1046 16 18 16C16.8954 16 16 16.8954 16 18C16 19.1046 16.8954 20 18 20Z" fill="#F7981E"/>
<path fill-rule="evenodd" clip-rule="evenodd" d="M34 20C35.1046 20 36 19.1046 36 18C36 16.8954 35.1046 16 34 16C32.8954 16 32 16.8954 32 18C32 19.1046 32.8954 20 34 20Z" fill="#F7981E"/>
<path fill-rule="evenodd" clip-rule="evenodd" d="M58 20C59.1046 20 60 19.1046 60 18C60 16.8954 59.1046 16 58 16C56.8954 16 56 16.8954 56 18C56 19.1046 56.8954 20 58 20Z" fill="#F7981E"/>
<path fill-rule="evenodd" clip-rule="evenodd" d="M42 20C43.1046 20 44 19.1046 44 18C44 16.8954 43.1046 16 42 16C40.8954 16 40 16.8954 40 18C40 19.1046 40.8954 20 42 20Z" fill="#F7981E"/>
<path fill-rule="evenodd" clip-rule="evenodd" d="M50 20C51.1046 20 52 19.1046 52 18C52 16.8954 51.1046 16 50 16C48.8954 16 48 16.8954 48 18C48 19.1046 48.8954 20 50 20Z" fill="#F7981E"/>
<path fill-rule="evenodd" clip-rule="evenodd" d="M2 28C3.10457 28 4 27.1046 4 26C4 24.8954 3.10457 24 2 24C0.89543 24 0 24.8954 0 26C0 27.1046 0.89543 28 2 28Z" fill="#F7981E"/>
<path fill-rule="evenodd" clip-rule="evenodd" d="M26 28C27.1046 28 28 27.1046 28 26C28 24.8954 27.1046 24 26 24C24.8954 24 24 24.8954 24 26C24 27.1046 24.8954 28 26 28Z" fill="#F7981E"/>
<path fill-rule="evenodd" clip-rule="evenodd" d="M10 28C11.1046 28 12 27.1046 12 26C12 24.8954 11.1046 24 10 24C8.89543 24 8 24.8954 8 26C8 27.1046 8.89543 28 10 28Z" fill="#F7981E"/>
<path fill-rule="evenodd" clip-rule="evenodd" d="M18 28C19.1046 28 20 27.1046 20 26C20 24.8954 19.1046 24 18 24C16.8954 24 16 24.8954 16 26C16 27.1046 16.8954 28 18 28Z" fill="#F7981E"/>
<path fill-rule="evenodd" clip-rule="evenodd" d="M34 28C35.1046 28 36 27.1046 36 26C36 24.8954 35.1046 24 34 24C32.8954 24 32 24.8954 32 26C32 27.1046 32.8954 28 34 28Z" fill="#F7981E"/>
<path fill-rule="evenodd" clip-rule="evenodd" d="M58 28C59.1046 28 60 27.1046 60 26C60 24.8954 59.1046 24 58 24C56.8954 24 56 24.8954 56 26C56 27.1046 56.8954 28 58 28Z" fill="#F7981E"/>
<path fill-rule="evenodd" clip-rule="evenodd" d="M42 28C43.1046 28 44 27.1046 44 26C44 24.8954 43.1046 24 42 24C40.8954 24 40 24.8954 40 26C40 27.1046 40.8954 28 42 28Z" fill="#F7981E"/>
<path fill-rule="evenodd" clip-rule="evenodd" d="M50 28C51.1046 28 52 27.1046 52 26C52 24.8954 51.1046 24 50 24C48.8954 24 48 24.8954 48 26C48 27.1046 48.8954 28 50 28Z" fill="#F7981E"/>
</g>
</svg>
