<svg width="64" height="84" viewBox="0 0 64 84" fill="none" xmlns="http://www.w3.org/2000/svg">
<g id="Group 20">
<g id="Group 3">
<mask id="mask0_0_370" style="mask-type:alpha" maskUnits="userSpaceOnUse" x="0" y="3" width="64" height="81">
<path id="Clip 2" fill-rule="evenodd" clip-rule="evenodd" d="M0.000305176 3.45117H63.613V83.166H0.000305176V3.45117Z" fill="white"/>
</mask>
<g mask="url(#mask0_0_370)">
<path id="Fill 1" fill-rule="evenodd" clip-rule="evenodd" d="M62.8633 3.45117H44.4593C44.0453 3.45117 43.7093 3.78717 43.7093 4.20117C43.7093 4.61517 44.0453 4.95117 44.4593 4.95117H62.1133V81.6662H1.50031V4.95117H19.1543C19.5683 4.95117 19.9043 4.61517 19.9043 4.20117C19.9043 3.78717 19.5683 3.45117 19.1543 3.45117H0.750305C0.336305 3.45117 0.000305176 3.78717 0.000305176 4.20117V82.4162C0.000305176 82.8302 0.336305 83.1662 0.750305 83.1662H62.8633C63.2773 83.1662 63.6133 82.8302 63.6133 82.4162V4.20117C63.6133 3.78717 63.2773 3.45117 62.8633 3.45117Z" fill="#1D1D1B"/>
</g>
</g>
<path id="Fill 4" fill-rule="evenodd" clip-rule="evenodd" d="M57.1114 9.20312H45.3064C44.8924 9.20312 44.5564 9.53912 44.5564 9.95312C44.5564 10.3671 44.8924 10.7031 45.3064 10.7031H56.3614V75.9161H7.2524V10.7031H18.9314C19.3454 10.7031 19.6814 10.3671 19.6814 9.95312C19.6814 9.53912 19.3454 9.20312 18.9314 9.20312H6.5024C6.0884 9.20312 5.7524 9.53912 5.7524 9.95312V76.6661C5.7524 77.0801 6.0884 77.4161 6.5024 77.4161H57.1114C57.5254 77.4161 57.8614 77.0801 57.8614 76.6661V9.95312C57.8614 9.53912 57.5254 9.20312 57.1114 9.20312Z" fill="#1D1D1B"/>
<path id="Fill 6" fill-rule="evenodd" clip-rule="evenodd" d="M21.4669 29.8301C21.1129 29.6151 20.6529 29.7261 20.4369 30.0801L16.9589 35.7931L13.6049 31.7191C13.3399 31.3961 12.8669 31.3511 12.5489 31.6151C12.2289 31.8791 12.1839 32.3511 12.4459 32.6721L16.4729 37.5601C16.6149 37.7341 16.8279 37.8341 17.0509 37.8341C17.0689 37.8341 17.0869 37.8321 17.1049 37.8321C17.3469 37.8141 17.5659 37.6821 17.6919 37.4731L21.7179 30.8591C21.9339 30.5061 21.8209 30.0451 21.4669 29.8301Z" fill="#EE8A09"/>
<path id="Fill 8" fill-rule="evenodd" clip-rule="evenodd" d="M21.4669 43.6328C21.1129 43.4178 20.6529 43.5288 20.4369 43.8828L16.9589 49.5958L13.6049 45.5218C13.3399 45.2008 12.8669 45.1538 12.5489 45.4178C12.2289 45.6818 12.1839 46.1538 12.4459 46.4748L16.4729 51.3628C16.6149 51.5368 16.8279 51.6368 17.0509 51.6368C17.0689 51.6368 17.0869 51.6348 17.1049 51.6348C17.3469 51.6168 17.5659 51.4848 17.6919 51.2758L21.7179 44.6618C21.9339 44.3088 21.8209 43.8478 21.4669 43.6328Z" fill="#EE8A09"/>
<path id="Fill 10" fill-rule="evenodd" clip-rule="evenodd" d="M21.4669 58.584C21.1129 58.371 20.6529 58.48 20.4369 58.836L16.9589 64.549L13.6049 60.475C13.3399 60.152 12.8669 60.107 12.5489 60.371C12.2289 60.635 12.1839 61.107 12.4459 61.428L16.4729 66.316C16.6149 66.49 16.8279 66.59 17.0509 66.59C17.0689 66.59 17.0869 66.588 17.1049 66.588C17.3469 66.57 17.5659 66.438 17.6919 66.229L21.7179 59.615C21.9339 59.262 21.8209 58.799 21.4669 58.584Z" fill="#EE8A09"/>
<path id="Fill 12" fill-rule="evenodd" clip-rule="evenodd" d="M49.0606 33.3574H28.3636C27.9496 33.3574 27.6136 33.6934 27.6136 34.1074C27.6136 34.5214 27.9496 34.8574 28.3636 34.8574H49.0606C49.4746 34.8574 49.8106 34.5214 49.8106 34.1074C49.8106 33.6934 49.4746 33.3574 49.0606 33.3574Z" fill="#EE8A09"/>
<path id="Fill 14" fill-rule="evenodd" clip-rule="evenodd" d="M49.0606 47.7344H28.3636C27.9496 47.7344 27.6136 48.0704 27.6136 48.4844C27.6136 48.8984 27.9496 49.2344 28.3636 49.2344H49.0606C49.4746 49.2344 49.8106 48.8984 49.8106 48.4844C49.8106 48.0704 49.4746 47.7344 49.0606 47.7344Z" fill="#EE8A09"/>
<path id="Fill 16" fill-rule="evenodd" clip-rule="evenodd" d="M49.0606 62.1133H28.3636C27.9496 62.1133 27.6136 62.4493 27.6136 62.8633C27.6136 63.2773 27.9496 63.6133 28.3636 63.6133H49.0606C49.4746 63.6133 49.8106 63.2773 49.8106 62.8633C49.8106 62.4493 49.4746 62.1133 49.0606 62.1133Z" fill="#EE8A09"/>
<mask id="mask1_0_370" style="mask-type:alpha" maskUnits="userSpaceOnUse" x="0" y="0" width="64" height="84">
<path id="Clip 19" fill-rule="evenodd" clip-rule="evenodd" d="M0 83.166H63.613V0H0V83.166Z" fill="white"/>
</mask>
<g mask="url(#mask1_0_370)">
<path id="Fill 18" fill-rule="evenodd" clip-rule="evenodd" d="M19.904 12.652H43.709V1.5H19.904V12.652ZM44.459 0H19.154C18.74 0 18.404 0.336 18.404 0.75V13.402C18.404 13.816 18.74 14.152 19.154 14.152H44.459C44.873 14.152 45.209 13.816 45.209 13.402V0.75C45.209 0.336 44.873 0 44.459 0Z" fill="#1D1D1B"/>
</g>
</g>
</svg>
