<svg width="86" height="78" viewBox="0 0 86 78" fill="none" xmlns="http://www.w3.org/2000/svg">
<g id="Group 32">
<path id="Combined Shape" fill-rule="evenodd" clip-rule="evenodd" d="M12.7151 52.701C12.0626 51.9833 11.3319 50.2639 10.9848 49.2477C10.9882 49.2227 10.9904 49.1972 10.9913 49.1714C11.0038 48.7723 10.7013 48.4364 10.3085 48.4011C10.2309 48.3853 10.1501 48.3815 10.0688 48.3913C6.35538 48.2403 3.81879 47.2252 2.53027 45.3754C0.544304 42.5224 1.96137 38.2681 2.42884 36.8647L2.43027 36.8604C2.50827 36.6304 2.56327 36.4594 2.58927 36.3584C2.62827 36.2034 2.61627 36.0394 2.55527 35.8904C1.76827 33.9754 1.81527 32.1734 2.69627 30.5354C4.63327 26.9334 9.89527 25.1004 10.5533 24.9694C10.8233 24.9364 11.0533 24.7594 11.1563 24.5074C11.9663 22.5134 14.2133 21.3364 15.9543 20.7014C18.8373 19.6484 21.7793 19.5584 22.3563 19.8614C22.5463 19.9624 22.7703 19.9744 22.9703 19.8994C33.2233 16.0214 39.4603 22.8184 39.7203 23.1094C39.8322 23.2348 39.9768 23.3134 40.1296 23.3443C40.2308 23.3832 40.3411 23.4005 40.4538 23.3906C42.1368 23.2556 44.4918 24.2616 46.0398 25.7866C47.0558 26.7866 47.5798 27.8806 47.5158 28.8656C47.4948 29.1806 47.6748 29.4746 47.9638 29.6016C52.5578 31.6056 51.9008 37.9476 51.8938 38.0116C51.8879 38.0632 51.8874 38.1142 51.8918 38.164C51.7851 38.4244 51.8303 38.7343 52.0324 38.9559C53.3084 40.3479 54.2334 45.0719 53.4544 48.3949C52.6014 52.0199 49.5424 55.6659 47.3674 55.6659L47.3557 55.6659L47.3301 55.6657C47.323 55.6656 47.3161 55.6653 47.3094 55.6649C46.9034 55.6649 46.5694 55.9899 46.5604 56.3979C46.5567 56.5902 46.6254 56.7674 46.7417 56.903C46.7516 58.1024 46.3415 59.6569 45.794 60.3978C44.749 61.8238 41.722 65.0428 36.194 64.1148C36.024 64.0878 35.77 64.1628 35.619 64.2488C35.32 64.4198 35.176 64.7718 35.269 65.1028C35.507 65.9528 37.15 69.9938 38.476 73.0888C40.523 77.8688 46.61 77.9238 46.868 77.9238H63.463C63.538 77.9238 71.046 77.8368 71.046 70.3408V47.9038C71.046 47.4898 70.71 47.1538 70.296 47.1538C69.882 47.1538 69.546 47.4898 69.546 47.9038V70.3408C69.546 76.3258 63.71 76.4228 63.463 76.4238H46.868C46.816 76.4238 41.517 76.3788 39.855 72.4978C38.788 70.0078 37.661 67.2498 37.083 65.7358C42.903 66.2148 46.116 62.4948 47.001 61.2868C47.7189 60.3152 48.2204 58.5578 48.2417 57.0546C51.1278 56.3384 54.0767 52.2993 54.9144 48.7379C55.725 45.2808 54.9776 40.3475 53.3765 38.23C53.3794 38.214 53.3819 38.1979 53.3838 38.1816C53.4168 37.8846 54.1398 31.0666 49.0128 28.4396C48.9298 27.1716 48.2608 25.8686 47.0918 24.7176C45.313 22.9666 42.693 21.8243 40.6202 21.8808C40.0548 21.3126 38.4294 19.8235 35.8863 18.6754C33.0343 17.3904 28.4503 16.3124 22.7093 18.3964C21.2623 17.9604 18.0523 18.3364 15.4403 19.2914C13.5093 19.9974 11.0313 21.3084 9.92127 23.5954C8.38427 24.0614 3.63027 25.9554 1.51627 29.5724C0.321273 31.6194 0.170273 33.8504 1.06727 36.2094L1.00927 36.3844C0.481273 37.9604 -1.11973 42.7584 1.29927 46.2324C2.82 48.4173 5.61633 49.6398 9.6156 49.8696C9.974 50.8718 10.7495 52.7686 11.6061 53.711C13.3381 55.612 15.5651 56.455 19.0441 56.455C19.4974 56.455 19.9716 56.4416 20.4686 56.4136C20.8732 57.7596 21.9509 59.6257 22.5949 60.2713C23.2359 60.9143 24.2509 61.7013 24.8179 62.1403L25.0169 62.2953C26.1909 63.3793 29.0929 66.6443 30.6969 73.5303C30.7769 73.8773 31.0849 74.1103 31.4259 74.1103C31.4819 74.1103 31.5389 74.1033 31.5969 74.0903C31.9989 73.9973 32.2509 73.5933 32.1569 73.1903C30.4599 65.9003 27.3099 62.3713 25.9819 61.1463L25.7149 60.9383L25.7069 60.9321L25.7069 60.9321C25.187 60.5286 24.2279 59.7844 23.6569 59.2123C23.0999 58.6523 21.8609 56.3923 21.8079 55.5413C21.7819 55.1283 21.4339 54.8123 21.0139 54.8383C20.9314 54.8433 20.8528 54.8615 20.78 54.8907C16.6786 55.1819 14.411 54.5622 12.7151 52.701Z" fill="#1A1D1D"/>
<path id="Fill 13" fill-rule="evenodd" clip-rule="evenodd" d="M66.421 35.7001H73.955V34.0041C73.908 33.4651 74.122 32.2621 75.234 31.5611C77.522 30.1111 78.943 27.3681 78.943 24.4031C78.943 19.5751 75.015 15.6461 70.187 15.6461C65.359 15.6461 61.433 19.5751 61.433 24.4031C61.433 27.2791 62.804 29.9431 65.1 31.5281C66.021 32.1641 66.29 32.5881 66.367 32.7851C66.402 32.8731 66.421 32.9671 66.421 33.0611V35.7001ZM74.705 37.2001H65.671C65.257 37.2001 64.921 36.8641 64.921 36.4501V33.3001C64.831 33.2151 64.63 33.0261 64.247 32.7621C61.546 30.8981 59.933 27.7731 59.933 24.4031C59.933 18.7481 64.532 14.1461 70.187 14.1461C75.843 14.1461 80.443 18.7481 80.443 24.4031C80.443 27.8771 78.755 31.1051 76.036 32.8301C75.421 33.2171 75.452 33.9221 75.453 33.9511L75.455 36.4501C75.455 36.8641 75.119 37.2001 74.705 37.2001Z" fill="#EE8A09"/>
<path id="Fill 15" fill-rule="evenodd" clip-rule="evenodd" d="M74.6085 41.0605H65.6555C65.2415 41.0605 64.9055 40.7245 64.9055 40.3105C64.9055 39.8965 65.2415 39.5605 65.6555 39.5605H74.6085C75.0225 39.5605 75.3585 39.8965 75.3585 40.3105C75.3585 40.7245 75.0225 41.0605 74.6085 41.0605Z" fill="#EE8A09"/>
<path id="Fill 17" fill-rule="evenodd" clip-rule="evenodd" d="M72.9503 44.9219H67.3133C66.8993 44.9219 66.5633 44.5859 66.5633 44.1719C66.5633 43.7579 66.8993 43.4219 67.3133 43.4219H72.9503C73.3643 43.4219 73.7003 43.7579 73.7003 44.1719C73.7003 44.5859 73.3643 44.9219 72.9503 44.9219Z" fill="#F5A623"/>
<g id="Group 21">
<path id="Fill 19" fill-rule="evenodd" clip-rule="evenodd" d="M69.9424 7.76363C69.5284 7.76363 69.1924 7.42763 69.1924 7.01363V0.749634C69.1924 0.335634 69.5284 -0.000366211 69.9424 -0.000366211C70.3564 -0.000366211 70.6924 0.335634 70.6924 0.749634V7.01363C70.6924 7.42763 70.3564 7.76363 69.9424 7.76363Z" fill="#EE8A09"/>
</g>
<path id="Fill 22" fill-rule="evenodd" clip-rule="evenodd" d="M59.6515 11.2979C59.4595 11.2979 59.2665 11.2249 59.1205 11.0779L54.6925 6.64989C54.3995 6.35689 54.3995 5.88189 54.6925 5.58889C54.9855 5.29589 55.4605 5.29589 55.7535 5.58889L60.1805 10.0179C60.4735 10.3109 60.4735 10.7849 60.1805 11.0779C60.0345 11.2249 59.8425 11.2979 59.6515 11.2979Z" fill="#EE8A09"/>
<path id="Fill 24" fill-rule="evenodd" clip-rule="evenodd" d="M80.7257 11.2979C80.5347 11.2979 80.3417 11.2249 80.1957 11.0779C79.9027 10.7849 79.9027 10.3109 80.1957 10.0179L84.6227 5.58889C84.9157 5.29589 85.3907 5.29589 85.6837 5.58889C85.9767 5.88189 85.9767 6.35689 85.6837 6.64989L81.2557 11.0779C81.1097 11.2249 80.9167 11.2979 80.7257 11.2979Z" fill="#EE8A09"/>
<path id="Fill 26" fill-rule="evenodd" clip-rule="evenodd" d="M25.3409 34.6015C20.2369 39.2945 18.1689 44.1875 19.5069 45.6425C20.8449 47.0955 25.8939 45.4495 31.0009 40.7555C33.3949 38.5555 35.3019 36.1295 36.3719 33.9255C37.3109 31.9945 37.4839 30.4195 36.8349 29.7145C36.1849 29.0075 34.6019 29.0465 32.5979 29.8205C30.3129 30.7025 27.7359 32.4005 25.3409 34.6015ZM21.0229 47.6445C19.9189 47.6445 19.0179 47.3265 18.4039 46.6585C16.2119 44.2735 18.7589 38.6165 24.3249 33.4965C26.8559 31.1705 29.6019 29.3695 32.0579 28.4205C34.7369 27.3885 36.8249 27.4885 37.9389 28.6995C39.0519 29.9105 38.9759 31.9995 37.7219 34.5815C36.5709 36.9505 34.5449 39.5355 32.0169 41.8615C28.0089 45.5425 23.8529 47.6445 21.0229 47.6445Z" fill="#F5A623"/>
<path id="Fill 28" fill-rule="evenodd" clip-rule="evenodd" d="M21.0118 29.2109C20.3358 29.2109 19.8158 29.3789 19.5068 29.7149C18.8588 30.4199 19.0308 31.9939 19.9698 33.9259C21.0398 36.1289 22.9478 38.5549 25.3408 40.7559C30.4478 45.4479 35.4938 47.0979 36.8338 45.6429C38.1718 44.1869 36.1058 39.2939 31.0008 34.6019C28.6068 32.3989 26.0298 30.7019 23.7438 29.8199C22.6928 29.4149 21.7568 29.2109 21.0118 29.2109ZM35.3198 47.6449C32.4888 47.6449 28.3338 45.5449 24.3248 41.8609C21.7968 39.5349 19.7708 36.9489 18.6198 34.5819C17.3658 31.9999 17.2878 29.9099 18.4038 28.6989C19.5188 27.4869 21.6068 27.3889 24.2838 28.4209C26.7408 29.3689 29.4868 31.1709 32.0168 33.4959C37.5828 38.6149 40.1298 44.2739 37.9388 46.6569C37.3238 47.3259 36.4218 47.6449 35.3198 47.6449Z" fill="#EE8A09"/>
<path id="Fill 30" fill-rule="evenodd" clip-rule="evenodd" d="M28.172 36.2295C27.453 36.2295 26.868 36.8135 26.868 37.5315C26.868 38.2505 27.453 38.8335 28.172 38.8335C28.89 38.8335 29.474 38.2505 29.474 37.5315C29.474 36.8135 28.89 36.2295 28.172 36.2295ZM28.172 40.3335C26.626 40.3335 25.368 39.0765 25.368 37.5315C25.368 35.9865 26.626 34.7295 28.172 34.7295C29.716 34.7295 30.974 35.9865 30.974 37.5315C30.974 39.0765 29.716 40.3335 28.172 40.3335Z" fill="#EE8A09"/>
</g>
</svg>
