<svg width="60" height="58" viewBox="0 0 60 58" fill="none" xmlns="http://www.w3.org/2000/svg">
<path id="mobioos-forge-logo" fill-rule="evenodd" clip-rule="evenodd" d="M60 58V0H0V58H2.36534V2.38356H57.6347V58H60ZM25.9118 17.3374C24.3771 17.3989 23.148 18.6179 23.0891 20.1372L23.0866 32.0812C23.0873 32.4726 22.9307 32.8483 22.6515 33.1254C22.3722 33.4026 21.9932 33.5586 21.5977 33.559C21.2024 33.5583 20.8235 33.4023 20.5445 33.1251C20.2654 32.848 20.109 32.4725 20.1096 32.0812V20.0813H20.1201C20.2096 19.3403 20.8438 18.7821 21.5977 18.7809C23.0078 18.7805 24.1894 17.8085 24.4943 16.503C24.3982 16.3071 24.3445 16.0871 24.3452 15.8548C24.3446 15.4635 24.501 15.088 24.7801 14.8108C25.0591 14.5337 25.438 14.3777 25.8333 14.377C25.8666 14.377 25.8999 14.3782 25.9329 14.3804C25.9662 14.3781 25.9998 14.377 26.0338 14.377C26.8549 14.377 27.5219 15.0388 27.5219 15.8548C27.5225 16.0862 27.4693 16.3055 27.3738 16.5008C27.6796 17.8159 28.8678 18.7802 30.2694 18.7809C31.0232 18.7821 31.6575 19.3403 31.747 20.0813H31.7575V32.0812C31.7581 32.4725 31.6017 32.848 31.3226 33.1251C31.0435 33.4023 30.6647 33.5583 30.2694 33.559C29.4474 33.559 28.7813 32.8972 28.7813 32.0812V20.1404L28.7788 20.1372C28.7198 18.6176 27.4903 17.3985 25.9552 17.3374L25.9335 17.3365L25.9118 17.3374ZM37.779 20.1372C37.72 18.6179 36.491 17.3989 34.9565 17.3374H34.9557C34.9086 17.3353 34.8615 17.3342 34.8144 17.3342C33.9982 17.3224 33.3435 16.6629 33.3458 15.8548C33.3452 15.4635 33.5016 15.088 33.7806 14.8108C34.0597 14.5337 34.4385 14.3777 34.8338 14.377C35.2669 14.3773 35.6785 14.5641 35.9614 14.8888C36.2443 15.2135 36.3705 15.644 36.3072 16.0682C36.4285 17.599 37.7183 18.7802 39.2693 18.7809C40.0231 18.7821 40.6573 19.3403 40.7468 20.0813H40.7581V32.0812C40.7587 32.4726 40.6022 32.8483 40.323 33.1254C40.0438 33.4026 39.6647 33.5586 39.2693 33.559C38.4474 33.559 37.7814 32.8972 37.7814 32.0812V20.1404L37.779 20.1372Z" fill="#EE8A09"/>
</svg>
