<svg width="135" height="24" viewBox="0 0 135 24" fill="none" xmlns="http://www.w3.org/2000/svg">
<g id="mobioos-logo-white">
<path id="Shape" fill-rule="evenodd" clip-rule="evenodd" d="M46.877 14.7701C46.877 9.67109 42.754 5.53809 37.667 5.53809C32.581 5.53809 28.457 9.67109 28.457 14.7691C28.457 19.8671 32.582 24.0001 37.668 24.0001C42.755 24.0001 46.878 19.8671 46.878 14.7701H46.877ZM43.193 14.7701C43.1952 13.3026 42.6141 11.8943 41.5777 10.8553C40.5413 9.81631 39.1346 9.23168 37.667 9.23009C36.1997 9.23194 34.7932 9.81669 33.757 10.8557C32.7208 11.8947 32.1399 13.3027 32.142 14.7701C32.1387 17.8249 34.6122 20.3042 37.667 20.3081C39.1344 20.3065 40.541 19.722 41.5773 18.6832C42.6137 17.6444 43.1949 16.2364 43.193 14.7691V14.7701ZM58.85 24.0001C63.936 24.0001 68.059 19.8671 68.059 14.7701C68.059 9.67109 63.936 5.53809 58.849 5.53809C53.763 5.53809 49.639 9.67109 49.639 14.7691C49.639 19.8671 53.764 24.0001 58.85 24.0001ZM58.85 20.3081C60.3172 20.3062 61.7236 19.7216 62.7597 18.6829C63.7958 17.6441 64.3769 16.2363 64.375 14.7691C64.3766 13.3019 63.7953 11.8942 62.759 10.8556C61.7227 9.81704 60.3162 9.23268 58.849 9.23109C55.7942 9.23495 53.3207 11.7142 53.324 14.7691C53.3222 16.2363 53.9032 17.6441 54.9394 18.6829C55.9755 19.7216 57.3819 20.3062 58.849 20.3081H58.85ZM86.478 24.0001C91.565 24.0001 95.688 19.8671 95.688 14.7701C95.688 9.67109 91.565 5.53809 86.478 5.53809C81.392 5.53809 77.268 9.67109 77.268 14.7691C77.268 19.8671 81.393 24.0001 86.479 24.0001H86.478ZM86.478 20.3081C87.9454 20.3065 89.352 19.722 90.3883 18.6832C91.4247 17.6444 92.0059 16.2364 92.004 14.7691C92.0056 13.3019 91.4243 11.8942 90.388 10.8556C89.3517 9.81704 87.9452 9.23268 86.478 9.23109C85.0109 9.23268 83.6044 9.81704 82.5681 10.8556C81.5317 11.8942 80.9504 13.3019 80.952 14.7691C80.9502 16.2364 81.5314 17.6444 82.5677 18.6832C83.6041 19.722 85.0107 20.3065 86.478 20.3081V20.3081ZM107.66 24.0001C112.747 24.0001 116.87 19.8671 116.87 14.7701C116.87 9.67109 112.747 5.53809 107.66 5.53809C102.574 5.53809 98.45 9.67109 98.45 14.7691C98.45 19.8671 102.575 24.0001 107.66 24.0001ZM113.186 14.7701C113.188 13.3026 112.607 11.8943 111.571 10.8553C110.534 9.81631 109.128 9.23168 107.66 9.23009C106.193 9.23194 104.786 9.81669 103.75 10.8557C102.714 11.8947 102.133 13.3027 102.135 14.7701C102.132 17.8249 104.605 20.3042 107.66 20.3081C109.127 20.3065 110.534 19.722 111.57 18.6832C112.607 17.6444 113.188 16.2364 113.186 14.7691V14.7701Z" fill="white"/>
<path id="Path" fill-rule="evenodd" clip-rule="evenodd" d="M49.64 1.84C49.64 0.824 50.457 0 51.482 0C52.499 0 53.324 0.815 53.324 1.84V14.77H49.64V1.84Z" fill="white"/>
<rect id="Rectangle" x="70.822" y="5.53809" width="3.684" height="18.462" rx="1.842" fill="white"/>
<path id="Shape_2" fill-rule="evenodd" clip-rule="evenodd" d="M11.025 7.207C10.9519 5.30575 9.42913 3.78035 7.52801 3.704C7.46972 3.70134 7.41137 3.7 7.35301 3.7C6.3421 3.68522 5.53116 2.86001 5.53401 1.849C5.53322 1.35941 5.72694 0.889556 6.07257 0.542801C6.4182 0.196047 6.88742 0.000795003 7.37701 0C7.91353 0.000333594 8.42335 0.234066 8.77376 0.640346C9.12417 1.04663 9.28048 1.58525 9.20201 2.116C9.35228 4.03127 10.9499 5.5091 12.871 5.51C13.8047 5.5115 14.5902 6.20991 14.701 7.137H14.714V22.151C14.7148 22.6406 14.5211 23.1104 14.1755 23.4572C13.8298 23.804 13.3606 23.9992 12.871 24C11.853 24 11.028 23.172 11.028 22.151V7.211L11.025 7.207ZM18.5 3.704C20.4007 3.78086 21.923 5.30612 21.996 7.207L21.999 7.211V22.151C21.999 23.172 22.824 24 23.842 24C24.3318 23.9995 24.8013 23.8043 25.1471 23.4576C25.4929 23.1108 25.6868 22.6408 25.686 22.151V7.137H25.672C25.5612 6.20991 24.7757 5.5115 23.842 5.51C21.9209 5.5091 20.3233 4.03127 20.173 2.116C20.2515 1.58525 20.0952 1.04663 19.7448 0.640346C19.3944 0.234066 18.8845 0.000333594 18.348 0C17.8584 0.000795003 17.3892 0.196047 17.0436 0.542801C16.6979 0.889556 16.5042 1.35941 16.505 1.849C16.5022 2.86001 17.3131 3.68522 18.324 3.7C18.3824 3.7 18.4407 3.70134 18.499 3.704H18.5ZM119.633 11.077C119.633 8.018 122.043 5.538 125.016 5.538H130.687C131.678 5.632 132.482 6.438 132.482 7.431C132.482 8.424 131.678 9.229 130.687 9.229C130.687 9.229 124.927 9.231 124.927 9.229C123.977 9.281 123.222 10.089 123.222 11.077C123.222 12.066 123.977 12.873 124.926 12.921L128.985 12.923C131.958 12.923 134.368 15.403 134.368 18.462C134.368 21.52 131.958 24 128.985 24H121.472C120.481 23.906 119.677 23.101 119.677 22.108C119.677 21.114 120.481 20.309 121.472 20.309H123.908L129.074 20.308C130.024 20.258 130.779 19.45 130.779 18.462C130.779 17.472 130.024 16.666 129.074 16.618H124.851C121.954 16.523 119.633 14.078 119.633 11.077Z" fill="white"/>
<path id="Path_2" fill-rule="evenodd" clip-rule="evenodd" d="M7.186 3.704C5.28527 3.78086 3.76306 5.30612 3.69 7.207L3.687 7.211V22.151C3.6878 22.6408 3.49394 23.1108 3.14809 23.4576C2.80224 23.8043 2.33277 23.9995 1.843 24C1.35341 23.9992 0.884191 23.804 0.538561 23.4572C0.192932 23.1104 -0.000793851 22.6406 2.44516e-06 22.151V7.137H0.0130024C0.123768 6.20991 0.909324 5.5115 1.843 5.51C3.86812 5.50949 5.51291 3.87408 5.525 1.849C5.525 0.828 6.32 0 7.337 0C8.354 0 9.18 0.828 9.18 1.849C9.18286 2.85963 8.37252 3.68467 7.362 3.7C7.30331 3.69999 7.24463 3.70132 7.186 3.704Z" fill="white"/>
</g>
</svg>
