<svg width="38" height="72" viewBox="0 0 38 72" fill="none" xmlns="http://www.w3.org/2000/svg">
<g id="Group 8">
<path id="Fill 1" fill-rule="evenodd" clip-rule="evenodd" d="M8.33791 41.3004H21.5759C21.8069 41.3004 22.0239 41.4054 22.1659 41.5874C22.3079 41.7684 22.3589 42.0034 22.3049 42.2284L19.5469 53.6024L27.9839 38.1964H13.3909C13.1759 38.1964 12.9719 38.1054 12.8289 37.9444C12.6869 37.7824 12.6199 37.5704 12.6469 37.3564L13.9539 26.5594L8.33791 41.3004ZM17.4829 59.6844C17.3919 59.6844 17.2999 59.6694 17.2119 59.6334C16.8599 59.4974 16.6649 59.1244 16.7539 58.7574L20.6229 42.8004H7.24991C7.00291 42.8004 6.77291 42.6794 6.63291 42.4764C6.49191 42.2734 6.46091 42.0144 6.54891 41.7834L14.7339 20.2954C14.8699 19.9414 15.2519 19.7404 15.6149 19.8344C15.9839 19.9254 16.2259 20.2774 16.1799 20.6534L14.2369 36.6964H29.2499C29.5149 36.6964 29.7599 36.8354 29.8959 37.0644C30.0299 37.2924 30.0349 37.5734 29.9079 37.8064L18.1409 59.2944C18.0049 59.5424 17.7489 59.6844 17.4829 59.6844Z" fill="#EE8A09"/>
<g id="Group 5">
<mask id="mask0_0_83" style="mask-type:alpha" maskUnits="userSpaceOnUse" x="0" y="7" width="38" height="65">
<path id="Clip 4" fill-rule="evenodd" clip-rule="evenodd" d="M0.000183105 7.99951H37.5V71.499H0.000183105V7.99951Z" fill="white"/>
</mask>
<g mask="url(#mask0_0_83)">
<path id="Fill 3" fill-rule="evenodd" clip-rule="evenodd" d="M34.7432 9.49951H2.75018C2.46218 9.50451 1.50018 9.60951 1.50018 10.7495V68.7495C1.50018 69.8875 2.46218 69.9935 2.75718 69.9995H34.7452C35.0432 69.9935 36.0002 69.8835 36.0002 68.7495V10.7495C36.0002 9.60951 35.0382 9.50451 34.7432 9.49951ZM34.7502 71.4995H2.75018C1.64418 71.4995 0.000183105 70.7665 0.000183105 68.7495V10.7495C0.000183105 8.73151 1.64418 7.99951 2.75018 7.99951H34.7502C35.8552 7.99951 37.5002 8.73151 37.5002 10.7495V68.7495C37.5002 70.7645 35.8552 71.4995 34.7502 71.4995Z" fill="#1D1D1B"/>
</g>
</g>
<mask id="mask1_0_83" style="mask-type:alpha" maskUnits="userSpaceOnUse" x="0" y="0" width="38" height="72">
<path id="Clip 7" fill-rule="evenodd" clip-rule="evenodd" d="M0 71.499H37.5V0H0V71.499Z" fill="white"/>
</mask>
<g mask="url(#mask1_0_83)">
<path id="Fill 6" fill-rule="evenodd" clip-rule="evenodd" d="M8.5 8H29V1.5H8.5V8ZM29.75 9.5H7.75C7.336 9.5 7 9.164 7 8.75V0.75C7 0.335 7.336 0 7.75 0H29.75C30.164 0 30.5 0.335 30.5 0.75V8.75C30.5 9.164 30.164 9.5 29.75 9.5Z" fill="#1D1D1B"/>
</g>
</g>
</svg>
