<svg width="84" height="84" viewBox="0 0 84 84" fill="none" xmlns="http://www.w3.org/2000/svg">
<g id="Group 26">
<path id="Fill 1" fill-rule="evenodd" clip-rule="evenodd" d="M72.0337 83.0001H65.0004C64.4484 83.0001 64.0004 82.5572 64.0004 82.0115C64.0004 81.4658 64.4484 81.0228 65.0004 81.0228H72.0337C77.1617 81.0228 81.3337 76.8983 81.3337 71.8285V55.6953C81.3337 55.1496 81.7817 54.7067 82.3337 54.7067C82.8857 54.7067 83.3337 55.1496 83.3337 55.6953V71.8285C83.3337 77.9884 78.2644 83.0001 72.0337 83.0001Z" fill="#EE8A09"/>
<path id="Fill 4" fill-rule="evenodd" clip-rule="evenodd" d="M58.9917 83.0001H55.0083C54.4517 83.0001 54 82.5521 54 82.0001C54 81.4481 54.4517 81.0001 55.0083 81.0001H58.9917C59.5483 81.0001 60 81.4481 60 82.0001C60 82.5521 59.5483 83.0001 58.9917 83.0001Z" fill="#EE8A09"/>
<path id="Fill 6" fill-rule="evenodd" clip-rule="evenodd" d="M28.039 83.0001H22.961C22.4305 83.0001 22 82.5521 22 82.0001C22 81.4481 22.4305 81.0001 22.961 81.0001H28.039C28.5695 81.0001 29 81.4481 29 82.0001C29 82.5521 28.5695 83.0001 28.039 83.0001Z" fill="#EE8A09"/>
<path id="Fill 8" fill-rule="evenodd" clip-rule="evenodd" d="M18.0172 84.0001H11.1052C4.98193 84.0001 0 78.8632 0 72.5496V56.0134C0 55.4541 0.440276 55.0001 0.982759 55.0001C1.52524 55.0001 1.96552 55.4541 1.96552 56.0134V72.5496C1.96552 77.7459 6.06559 81.9735 11.1052 81.9735H18.0172C18.5597 81.9735 19 82.4274 19 82.9868C19 83.5462 18.5597 84.0001 18.0172 84.0001Z" fill="#EE8A09"/>
<path id="Fill 10" fill-rule="evenodd" clip-rule="evenodd" d="M1.03125 28.9511C0.462 28.9511 0 28.5082 0 27.9624V11.8305C0 5.67066 5.22775 0.658936 11.6531 0.658936H20.2812C20.8505 0.658936 21.3125 1.10184 21.3125 1.64757C21.3125 2.1933 20.8505 2.63621 20.2812 2.63621H11.6531C6.36487 2.63621 2.0625 6.7608 2.0625 11.8305V27.9624C2.0625 28.5082 1.6005 28.9511 1.03125 28.9511Z" fill="#EE8A09"/>
<path id="Fill 13" fill-rule="evenodd" clip-rule="evenodd" d="M27.9917 3.00012H24.0083C23.4517 3.00012 23 2.55212 23 2.00012C23 1.44812 23.4517 1.00012 24.0083 1.00012H27.9917C28.5483 1.00012 29 1.44812 29 2.00012C29 2.55212 28.5483 3.00012 27.9917 3.00012Z" fill="#EE8A09"/>
<path id="Fill 15" fill-rule="evenodd" clip-rule="evenodd" d="M58.9917 3.00012H55.0083C54.4517 3.00012 54 2.55212 54 2.00012C54 1.44812 54.4517 1.00012 55.0083 1.00012H58.9917C59.5483 1.00012 60 1.44812 60 2.00012C60 2.55212 59.5483 3.00012 58.9917 3.00012Z" fill="#EE8A09"/>
<path id="Fill 17" fill-rule="evenodd" clip-rule="evenodd" d="M82.2812 28.9511C81.712 28.9511 81.25 28.5082 81.25 27.9624V11.8305C81.25 6.7608 76.9476 2.63621 71.6594 2.63621H63.0312C62.462 2.63621 62 2.1933 62 1.64757C62 1.10184 62.462 0.658936 63.0312 0.658936H71.6594C78.0848 0.658936 83.3125 5.67066 83.3125 11.8305V27.9624C83.3125 28.5082 82.8505 28.9511 82.2812 28.9511Z" fill="#EE8A09"/>
<path id="Fill 20" fill-rule="evenodd" clip-rule="evenodd" d="M47.3775 61.9346C47.7808 61.9346 48.1546 62.1763 48.3119 62.5595L50.8195 68.6944L55.29 66.8933L52.7784 60.7557C52.5915 60.2991 52.7663 59.7771 53.1912 59.5207C55.8144 57.9493 58.092 55.7664 59.7754 53.2069C60.0456 52.7944 60.578 52.6408 61.0298 52.8398L67.1138 55.5381L69.0849 51.1642L62.9942 48.4659C62.541 48.267 62.3044 47.769 62.4321 47.2923C63.2308 44.3324 63.3491 41.1922 62.7696 38.2082C62.6755 37.7248 62.9511 37.2442 63.4204 37.0773L69.702 34.8383L68.0684 30.3403L61.7895 32.5686C61.3216 32.7368 60.8039 32.5379 60.5659 32.108C58.9377 29.164 56.5929 26.6527 53.7882 24.8436C53.37 24.5752 53.2127 24.0452 53.4144 23.5952L56.133 17.5498L51.7405 15.6005L49.0191 21.6433C48.8161 22.0919 48.32 22.3349 47.84 22.2027C44.5755 21.3402 41.1254 21.2841 37.8609 22.0398C37.3796 22.148 36.8834 21.8996 36.6966 21.4417L34.185 15.3055L29.7171 17.1012L32.2327 23.2414C32.421 23.6954 32.2462 24.2201 31.8213 24.4737C29.1403 26.0826 26.9218 28.2067 25.2277 30.7902C24.9575 31.2028 24.4251 31.359 23.9719 31.1574L17.8893 28.4618L15.925 32.8343L22.0076 35.5366C22.4607 35.7368 22.6987 36.2348 22.5696 36.7101C21.7683 39.6594 21.6513 42.7996 22.2308 45.7877C22.3249 46.2736 22.0493 46.7529 21.58 46.9198L15.2984 49.1562L16.9307 53.6649L23.2096 51.4339C23.6762 51.2657 24.1938 51.4619 24.4331 51.8932C26.0613 54.8278 28.4102 57.3418 31.2163 59.1616C31.6317 59.4299 31.7877 59.9586 31.5873 60.4073L28.8741 66.45L33.272 68.3913L35.984 62.3552C36.187 61.9066 36.6871 61.6689 37.1644 61.7958C40.4303 62.6609 43.8817 62.7184 47.1489 61.9613C47.2255 61.9426 47.3008 61.9346 47.3775 61.9346ZM50.2628 71.0001C49.8662 71.0001 49.4884 70.7638 49.3284 70.3753L46.7603 64.0895C43.7083 64.6743 40.5352 64.6209 37.4831 63.936L34.7026 70.1203C34.4754 70.6263 33.8811 70.8519 33.3729 70.6276L27.1316 67.8719C26.8869 67.7638 26.696 67.5648 26.6005 67.3152C26.505 67.0682 26.5104 66.7918 26.6207 66.5488L29.4025 60.3552C26.8654 58.5688 24.7101 56.2577 23.0967 53.6008L16.6631 55.8879C16.1387 56.0761 15.5619 55.8024 15.3737 55.2844L13.0611 48.8905C12.9683 48.6408 12.9818 48.3658 13.0974 48.1241C13.2104 47.8851 13.4161 47.6996 13.6688 47.6101L20.1037 45.319C19.6843 42.5727 19.7905 39.7369 20.413 37.0226L14.1824 34.2549C13.6742 34.0292 13.447 33.4364 13.6729 32.9318L16.4587 26.7314C16.5663 26.4884 16.768 26.3002 17.0181 26.2041C17.2668 26.1079 17.5465 26.1146 17.7898 26.2254L24.0244 28.9878C25.6513 26.6994 27.6721 24.7635 30.0465 23.2174L27.4691 16.9263C27.3682 16.6806 27.3696 16.4043 27.4744 16.1599C27.578 15.9143 27.777 15.722 28.0244 15.6219L34.3625 13.0731C34.8774 12.8662 35.4663 13.1145 35.6761 13.6245L38.2468 19.9103C41.2975 19.3268 44.4733 19.3789 47.5213 20.0638L50.3112 13.8702C50.5385 13.3642 51.1354 13.1372 51.6423 13.3642L57.8769 16.1292C58.3865 16.3549 58.6123 16.9477 58.3865 17.4523L55.6006 23.6446C58.1364 25.4244 60.2917 27.7368 61.9037 30.4017L68.336 28.1186C68.859 27.929 69.4358 28.2014 69.624 28.7221L71.942 35.1027C72.0307 35.3523 72.0173 35.6287 71.9043 35.869C71.7901 36.1093 71.5843 36.2949 71.3316 36.3844L64.8967 38.6781C65.3162 41.4205 65.2113 44.2576 64.5874 46.9786L70.8274 49.7436C71.0721 49.8518 71.2643 50.052 71.3598 50.3004C71.4553 50.5487 71.4472 50.8251 71.3369 51.0667L68.543 57.2697C68.3144 57.7744 67.7188 58.0027 67.2119 57.7744L60.9774 55.0093C59.3545 57.2804 57.2987 59.2524 54.9646 60.7784L57.5381 67.0682C57.6376 67.3138 57.6376 67.5889 57.5327 67.8345C57.4278 68.0802 57.2302 68.2725 56.9828 68.3726L50.642 70.9267C50.5183 70.9761 50.3892 71.0001 50.2628 71.0001Z" fill="#000207"/>
<path id="Fill 22" fill-rule="evenodd" clip-rule="evenodd" d="M41.1758 49.763C45.4594 50.7654 49.7592 48.0974 50.7619 43.8177C51.7645 39.5381 49.0957 35.2395 44.8148 34.2371C40.5393 33.2348 36.2462 35.9014 35.2422 40.1811C34.7571 42.2547 35.1057 44.3932 36.2246 46.2034C37.3462 48.0136 39.1042 49.2781 41.1758 49.763ZM42.9946 52.0001C42.2419 52.0001 41.4798 51.915 40.7136 51.7367C38.1137 51.1274 35.9084 49.5415 34.5017 47.2693C33.0964 45.0011 32.6586 42.3196 33.268 39.7191C34.5274 34.3533 39.9096 31.0098 45.2769 32.2635C50.647 33.5225 53.9915 38.9126 52.7361 44.2784C51.6564 48.8849 47.5336 52.0001 42.9946 52.0001Z" fill="#000207"/>
<path id="Fill 24" fill-rule="evenodd" clip-rule="evenodd" d="M48.2983 27.753C48.1959 27.753 48.0895 27.7369 47.9858 27.7035C45.1129 26.7762 41.9248 26.7709 39.0398 27.6955C38.5064 27.8639 37.9407 27.5752 37.7683 27.0501C37.5973 26.5237 37.8882 25.9585 38.4189 25.7875C41.7053 24.7346 45.3324 24.7372 48.6107 25.7982C49.1414 25.9692 49.4323 26.5344 49.2586 27.0608C49.1185 27.4844 48.7239 27.753 48.2983 27.753ZM28.0102 42.3371H28.0088C27.4499 42.3358 26.9987 41.8868 27 41.3323C27.0067 37.8503 28.1031 34.5259 30.1652 31.7227C30.4938 31.2751 31.1282 31.1775 31.5781 31.5049C32.0279 31.8309 32.1276 32.4576 31.7989 32.9038C29.986 35.3637 29.0257 38.2805 29.0203 41.3377C29.019 41.8895 28.5678 42.3371 28.0102 42.3371ZM58.9885 42.3972C58.4309 42.3972 57.9783 41.979 57.9783 41.4259V41.3657C57.9783 38.3073 57.0247 35.3904 55.2186 32.9279C54.8913 32.4803 54.9896 31.8523 55.4408 31.5276C55.8893 31.2029 56.5237 31.3005 56.8523 31.7481C58.9104 34.5567 60 37.8824 60 41.3657C60 41.9189 59.5474 42.3972 58.9885 42.3972ZM38.6707 56.9721C38.5657 56.9721 38.4593 56.956 38.3556 56.9226C35.0813 55.8577 32.1586 53.7386 30.1261 50.9553C29.8002 50.5077 29.8998 49.8824 30.3524 49.5564C30.8023 49.229 31.4339 49.3319 31.7626 49.7809C33.5459 52.2234 36.1103 54.0833 38.9846 55.0173C39.5152 55.1896 39.8035 55.7562 39.6297 56.2826C39.491 56.7048 39.095 56.9721 38.6707 56.9721ZM48.2404 57.0001C47.812 57.0001 47.4161 56.7302 47.2773 56.304C47.1063 55.7775 47.3999 55.2123 47.9319 55.044C50.8102 54.126 53.3855 52.2808 55.1835 49.849C55.5135 49.4027 56.1479 49.3052 56.5951 49.6339C57.0449 49.9599 57.1419 50.5879 56.8133 51.0342C54.7647 53.8054 51.8298 55.9058 48.5488 56.952C48.4451 56.9841 48.3414 57.0001 48.2404 57.0001Z" fill="#000207"/>
</g>
</svg>
