<svg width="72" height="72" viewBox="0 0 72 72" fill="none" xmlns="http://www.w3.org/2000/svg">
<g id="Group 14">
<path id="Fill 1" fill-rule="evenodd" clip-rule="evenodd" d="M11.376 2.00049C14.016 2.00049 16.496 3.02849 18.362 4.89449C22.214 8.74749 22.214 15.0165 18.362 18.8695C16.496 20.7355 14.016 21.7635 11.376 21.7635C8.73599 21.7635 6.25499 20.7355 4.38899 18.8695C0.536994 15.0165 0.536994 8.74749 4.38899 4.89449C6.25499 3.02849 8.73599 2.00049 11.376 2.00049ZM11.376 23.2635C14.163 23.2635 16.791 22.2575 18.867 20.4345L24.377 25.9445C24.519 26.0865 24.707 26.1645 24.907 26.1645C25.107 26.1645 25.296 26.0865 25.438 25.9445C25.73 25.6525 25.73 25.1765 25.438 24.8845L19.926 19.3735C23.841 14.9075 23.682 8.09249 19.423 3.83349C17.273 1.68449 14.415 0.500488 11.376 0.500488C8.33599 0.500488 5.47799 1.68449 3.32799 3.83349C-1.10901 8.27149 -1.10901 15.4925 3.32799 19.9305C5.47799 22.0795 8.33599 23.2635 11.376 23.2635Z" fill="black"/>
<path id="Fill 3" fill-rule="evenodd" clip-rule="evenodd" d="M11.877 49.6138C14.517 49.6138 16.998 50.6418 18.864 52.5078C22.716 56.3598 22.716 62.6288 18.864 66.4828C16.998 68.3488 14.517 69.3768 11.877 69.3768C9.236 69.3768 6.755 68.3488 4.889 66.4828C3.023 64.6158 1.994 62.1348 1.994 59.4938C1.994 56.8548 3.023 54.3728 4.889 52.5078C6.755 50.6418 9.236 49.6138 11.877 49.6138ZM19.925 67.5438C24.352 63.1138 24.359 55.9158 19.952 51.4778L24.288 47.1408C24.43 46.9998 24.508 46.8108 24.508 46.6108C24.508 46.4108 24.43 46.2218 24.288 46.0808C24.005 45.7978 23.511 45.7978 23.228 46.0808L18.82 50.4888C16.838 48.9548 14.424 48.1138 11.877 48.1138C8.836 48.1138 5.978 49.2978 3.828 51.4468C1.678 53.5958 0.493996 56.4538 0.493996 59.4938C0.493996 62.5338 1.678 65.3928 3.828 67.5438C5.978 69.6928 8.836 70.8768 11.877 70.8768C14.917 70.8768 17.775 69.6928 19.925 67.5438Z" fill="black"/>
<path id="Fill 5" fill-rule="evenodd" clip-rule="evenodd" d="M59.4893 69.877C56.8483 69.877 54.3673 68.849 52.5003 66.983C48.6493 63.131 48.6493 56.862 52.5003 53.008C54.3673 51.142 56.8493 50.114 59.4893 50.114C62.1293 50.114 64.6103 51.142 66.4773 53.008C70.3303 56.862 70.3303 63.131 66.4773 66.983C64.6103 68.849 62.1293 69.877 59.4893 69.877ZM67.5383 51.948C65.3873 49.798 62.5293 48.614 59.4893 48.614C56.7013 48.614 54.0723 49.62 51.9963 51.443L46.4883 45.933C46.2053 45.649 45.7113 45.649 45.4273 45.933C45.2863 46.074 45.2083 46.262 45.2083 46.462C45.2083 46.663 45.2863 46.852 45.4273 46.993L50.9363 52.505C47.0233 56.972 47.1823 63.786 51.4393 68.044C53.5903 70.193 56.4493 71.377 59.4893 71.377C62.5303 71.377 65.3883 70.193 67.5383 68.044C71.9753 63.607 71.9753 56.387 67.5383 51.948Z" fill="black"/>
<g id="Group 9">
<mask id="mask0_0_346" style="mask-type:alpha" maskUnits="userSpaceOnUse" x="44" y="0" width="28" height="26">
<path id="Clip 8" fill-rule="evenodd" clip-rule="evenodd" d="M44.7053 0H71.372V25.664H44.7053V0Z" fill="white"/>
</mask>
<g mask="url(#mask0_0_346)">
<path id="Fill 7" fill-rule="evenodd" clip-rule="evenodd" d="M59.9893 1.5C62.6293 1.5 65.1103 2.528 66.9763 4.394C68.8433 6.26 69.8723 8.741 69.8723 11.38C69.8723 14.02 68.8433 16.501 66.9763 18.369C65.1103 20.235 62.6293 21.263 59.9893 21.263C57.3493 21.263 54.8683 20.235 53.0013 18.369C49.1483 14.515 49.1483 8.246 53.0013 4.394C54.8683 2.528 57.3493 1.5 59.9893 1.5ZM45.4553 25.664C45.6553 25.664 45.8433 25.586 45.9853 25.444L51.9713 19.458C54.1183 21.588 56.9633 22.763 59.9893 22.763C63.0293 22.763 65.8863 21.579 68.0373 19.429C70.1873 17.279 71.3723 14.421 71.3723 11.38C71.3723 8.34 70.1873 5.482 68.0373 3.333C65.8873 1.184 63.0293 0 59.9893 0C56.9493 0 54.0913 1.184 51.9403 3.333C47.8523 7.419 47.5413 13.863 50.9833 18.324L44.9253 24.384C44.7833 24.525 44.7053 24.714 44.7053 24.914C44.7053 25.114 44.7833 25.303 44.9253 25.444C45.0663 25.586 45.2553 25.664 45.4553 25.664Z" fill="black"/>
</g>
</g>
<path id="Fill 10" fill-rule="evenodd" clip-rule="evenodd" d="M35.4502 39.7183C33.8232 39.7183 32.4992 38.3943 32.4992 36.7673C32.4992 35.1393 33.8232 33.8163 35.4502 33.8163C37.0772 33.8163 38.4012 35.1393 38.4012 36.7673C38.4012 38.3943 37.0772 39.7183 35.4502 39.7183ZM39.9012 36.7673C39.9012 34.3123 37.9042 32.3163 35.4502 32.3163C32.9962 32.3163 30.9992 34.3123 30.9992 36.7673C30.9992 39.2213 32.9962 41.2183 35.4502 41.2183C37.9042 41.2183 39.9012 39.2213 39.9012 36.7673Z" fill="#F5A623"/>
<path id="Fill 12" fill-rule="evenodd" clip-rule="evenodd" d="M35.7168 45.1866L35.4478 45.1906C34.1538 45.1906 32.9028 44.8986 31.7298 44.3226C31.4068 44.1646 30.9928 44.2706 30.7868 44.5626L29.3398 46.6046L28.2028 45.7996L29.6488 43.7556C29.8628 43.4526 29.8248 43.0456 29.5608 42.7876C28.6618 41.9046 27.9598 40.8186 27.5328 39.6446C27.4078 39.3046 27.1008 39.0936 26.6868 39.1646L24.2308 39.6366L23.9678 38.2616L26.4228 37.7886C26.7868 37.7176 27.0428 37.3976 27.0308 37.0266C26.9888 35.7696 27.2318 34.5356 27.7488 33.3596C27.8988 33.0206 27.7798 32.6286 27.4698 32.4276L25.3688 31.0666L26.1308 29.8926L28.2318 31.2566C28.5338 31.4506 28.9558 31.3936 29.1958 31.1276C30.1148 30.1066 31.2828 29.3196 32.5748 28.8496C32.9228 28.7236 33.1248 28.3686 33.0558 28.0036L32.5838 25.5466L33.9528 25.2846L34.4248 27.7426C34.4928 28.0946 34.8018 28.3506 35.1808 28.3506H35.1818L35.4638 28.3456C36.7408 28.3456 38.0218 28.6456 39.1658 29.2116C39.4858 29.3716 39.9038 29.2656 40.1118 28.9736L41.5578 26.9296L42.6978 27.7356L41.2528 29.7816C41.0378 30.0846 41.0758 30.4936 41.3418 30.7506C42.2498 31.6366 42.9308 32.6926 43.3638 33.8906C43.4868 34.2316 43.8688 34.4406 44.2098 34.3726L46.6668 33.9016L46.9298 35.2696L44.4738 35.7446C44.1098 35.8146 43.8538 36.1346 43.8648 36.5066C43.9078 37.7486 43.6608 39.0156 43.1508 40.1706C42.9998 40.5096 43.1158 40.9016 43.4278 41.1036L45.5298 42.4686L44.7708 43.6376L42.6688 42.2766C42.3678 42.0816 41.9398 42.1376 41.7018 42.4046C40.7858 43.4266 39.6178 44.2126 38.3268 44.6786C37.9788 44.8046 37.7768 45.1606 37.8458 45.5256L38.3168 47.9856L36.9458 48.2496L36.4728 45.7936C36.4038 45.4416 36.0948 45.1866 35.7368 45.1866C35.7358 45.1866 35.7188 45.1866 35.7168 45.1866ZM23.2158 41.1356C23.3778 41.2466 23.5728 41.2886 23.7778 41.2516L26.3628 40.7546C26.7838 41.7076 27.3688 42.6136 28.0678 43.3936L26.5458 45.5446C26.3078 45.8826 26.3878 46.3516 26.7248 46.5906L29.0848 48.2616C29.4088 48.4936 29.9018 48.4096 30.1308 48.0836L31.6548 45.9336C32.7518 46.3866 33.9408 46.6446 35.1168 46.6856L35.6138 49.2696C35.6818 49.6216 35.9908 49.8776 36.3498 49.8776C36.3958 49.8776 36.4428 49.8736 36.4918 49.8646L39.3368 49.3176C39.7418 49.2386 40.0088 48.8456 39.9308 48.4396L39.4348 45.8516C40.5188 45.3756 41.5278 44.6966 42.3718 43.8716L44.5828 45.3026C44.9158 45.5216 45.4018 45.4186 45.6198 45.0826L47.1968 42.6566C47.3058 42.4886 47.3438 42.2886 47.3028 42.0926C47.2608 41.8966 47.1458 41.7286 46.9768 41.6196L44.7618 40.1816C45.1228 39.1976 45.3288 38.1406 45.3648 37.1006L47.9498 36.6016C48.3558 36.5226 48.6218 36.1286 48.5438 35.7236L47.9978 32.8826C47.9218 32.4836 47.5198 32.2086 47.1208 32.2876L44.5358 32.7826C44.1128 31.8116 43.5418 30.9246 42.8348 30.1416L44.3568 27.9886C44.4708 27.8266 44.5168 27.6226 44.4838 27.4296C44.4498 27.2356 44.3388 27.0596 44.1778 26.9436L41.8128 25.2716C41.4858 25.0426 40.9988 25.1246 40.7668 25.4506L39.2438 27.6016C38.1508 27.1476 36.9608 26.8906 35.7798 26.8506L35.2838 24.2646C35.2068 23.8676 34.8208 23.5906 34.4068 23.6696L31.5648 24.2146C31.3668 24.2516 31.1958 24.3646 31.0838 24.5306C30.9738 24.6936 30.9318 24.8976 30.9688 25.0926L31.4668 27.6796C30.3838 28.1556 29.3738 28.8356 28.5278 29.6606L26.3198 28.2266C25.9828 28.0076 25.4978 28.1116 25.2808 28.4466L23.7018 30.8796C23.5948 31.0456 23.5568 31.2506 23.5978 31.4456C23.6398 31.6396 23.7588 31.8116 23.9238 31.9176L26.1358 33.3506C25.7688 34.3486 25.5658 35.3826 25.5318 36.4326L22.9478 36.9306C22.5418 37.0086 22.2758 37.4016 22.3538 37.8086L22.8998 40.6566C22.9378 40.8536 23.0498 41.0236 23.2158 41.1356Z" fill="#EE8A09"/>
</g>
</svg>
